<?xml version="1.0" encoding="UTF-8"?>
<svg width="364px" height="554px" viewBox="0 0 364 554" version="1.1" xmlns="http://www.w3.org/2000/svg" xmlns:xlink="http://www.w3.org/1999/xlink">
    <!-- Generator: Sketch 52.2 (67145) - http://www.bohemiancoding.com/sketch -->
    <title>伯鲧</title>
    <desc>Created with Sketch.</desc>
    <defs>
        <filter x="-39.5%" y="-24.0%" width="179.0%" height="148.0%" filterUnits="objectBoundingBox" id="filter-1">
            <feOffset dx="10" dy="20" in="SourceAlpha" result="shadowOffsetOuter1"></feOffset>
            <feGaussianBlur stdDeviation="20" in="shadowOffsetOuter1" result="shadowBlurOuter1"></feGaussianBlur>
            <feColorMatrix values="0 0 0 0 0.68627451   0 0 0 0 0.745098039   0 0 0 0 0.850980392  0 0 0 0.4 0" type="matrix" in="shadowBlurOuter1" result="shadowMatrixOuter1"></feColorMatrix>
            <feMerge>
                <feMergeNode in="shadowMatrixOuter1"></feMergeNode>
                <feMergeNode in="SourceGraphic"></feMergeNode>
            </feMerge>
        </filter>
    </defs>
    <g id="首页" stroke="none" stroke-width="1" fill="none" fill-rule="evenodd">
        <g id="Desktop-HD" transform="translate(-897.000000, -2039.000000)" fill="#5C5756">
            <g id="关于息壤" transform="translate(130.000000, 1965.000000)">
                <g id="伯鲧" filter="url(#filter-1)" transform="translate(795.000000, 91.000000)">
                    <path d="M136.939384,203 C138.404483,204.154089 138.404483,205.846753 138.096041,207.385539 C136.708053,214.156195 140.332246,219.388065 143.802218,224.23524 C147.19508,229.005475 151.7446,232.852438 157.065224,235.776131 C159.301428,237.007159 160.226754,239.392277 160.226754,241.623516 C160.072533,248.624989 162.771401,255.087888 163.928058,261.781605 C164.622053,265.705508 164.930495,270.244925 167.39803,274.091889 C168.94024,276.553946 168.86313,280.093153 169.865566,283.170723 C173.412649,294.17304 177.422395,304.944538 182.126135,315.485219 C183.976787,319.639939 186.984097,323.333025 189.220301,327.333867 C192.767384,333.719826 197.471124,339.182515 201.866423,344.95296 C202.868859,346.260928 204.025517,347.953592 203.177301,349.492378 C202.406196,351.031163 200.401323,350.646467 198.936224,350.569527 C194.386705,350.184831 189.760075,349.954013 185.287666,348.569106 C181.740583,347.491957 177.885058,348.415228 174.183754,348.18441 C171.253555,347.953592 168.246246,347.799714 165.316047,347.568896 C163.002732,347.338078 161.229191,346.183989 159.918312,344.337446 C157.219445,340.567422 156.139898,340.490483 152.669925,344.183568 C152.592815,340.413543 150.587942,339.644151 147.349301,338.797819 C144.573323,338.105365 143.956439,333.950644 142.954003,330.950013 C141.180461,325.795081 141.334682,320.255454 139.48403,315.100522 C139.252699,314.408069 138.867146,313.638676 138.867146,312.869283 C138.481594,308.560684 137.324937,304.405963 136.630942,300.174303 C135.705616,294.557736 135.551395,288.78729 134.471848,283.170723 C134.163406,281.708877 134.857401,279.708456 132.852528,279.32376 C130.924765,278.939063 129.536776,280.862545 129.305445,282.247452 C128.688561,286.094416 127.377682,289.86444 127.763235,293.942222 C128.380119,301.174514 129.999439,308.175988 131.387428,315.254401 C132.158533,319.101364 133.23808,323.025267 134.934511,326.795292 C136.399611,330.18062 136.630942,334.104523 137.941821,337.720669 C138.712925,339.874968 136.708053,340.644361 134.626069,340.644361 C128.380119,340.567422 122.057058,340.567422 115.811108,340.490483 C115.040003,340.490483 114.268898,340.413543 113.497793,340.567422 C111.647141,340.79824 110.336262,341.721511 110.413373,343.798871 C110.413373,345.953171 111.878472,346.645625 113.729124,346.645625 C117.199097,346.568685 120.669069,346.260928 124.139041,346.183989 C130.847655,346.10705 137.479158,346.183989 144.187771,346.183989 C145.035986,346.183989 146.423975,345.953171 146.423975,347.10726 C146.501086,348.722985 144.958876,348.107471 144.11066,348.107471 C138.712925,348.18441 133.315191,348.107471 127.917456,348.18441 C126.452356,348.18441 124.370373,347.876653 124.755925,350.26177 C125.064367,352.108313 126.837909,353.031584 128.688561,352.41607 C132.158533,351.185042 135.782727,351.646677 139.329809,351.261981 C142.876892,350.877285 144.881765,353.185463 144.727544,355.801398 C144.419102,360.802451 147.349301,364.726354 148.043296,369.41965 C148.66018,373.497431 149.816837,377.80603 151.898821,381.652994 C152.515704,382.807083 152.901257,384.345869 154.443467,383.961172 C155.985677,383.576476 155.368793,382.037691 155.137461,381.03748 C153.672362,374.036006 152.824146,366.880654 150.587942,359.956119 C150.048169,358.186516 150.2795,356.186095 150.125279,354.262613 C149.971058,351.877495 151.204826,351.108102 153.44103,351.108102 C162.385848,351.33892 171.407776,351.646677 180.352594,351.646677 C184.208119,351.646677 186.752765,353.339341 188.063644,356.724669 C192.613163,368.496378 199.090445,379.267877 204.950843,390.424071 C207.032826,394.424914 209.19192,398.271877 212.430561,401.503327 C213.355887,402.426598 214.435434,403.426809 213.81855,404.811716 C213.124555,406.196623 211.659456,405.888865 210.348577,405.965805 C193.6156,405.965805 176.959732,406.042744 160.226754,405.965805 C138.404483,405.811926 116.582213,405.581108 94.759942,405.42723 C92.0610746,405.42723 91.7526326,404.580898 92.5237376,402.27272 C93.2948426,399.964541 92.9864006,397.887181 89.7477597,397.810242 C81.419826,397.579424 73.1690028,397.271667 64.8410691,397.040849 C64.0699641,397.040849 63.2988591,397.040849 62.5277541,397.040849 C60.5999917,397.117788 58.6722293,397.425545 58.7493398,399.810663 C58.8264503,401.888023 60.5228812,402.349659 62.3735332,402.426598 C68.0025995,402.657416 73.6316658,403.042112 79.2607321,403.27293 C82.345152,403.426809 85.2753509,403.811505 88.1284393,405.119473 C81.4969365,405.119473 74.8654337,404.965594 68.3110414,405.119473 C62.8361961,405.273351 57.3613508,404.888655 52.0407265,404.580898 C39.7030469,403.811505 27.4424779,404.503959 15.1819088,403.811505 C14.0252513,403.734566 12.7143729,403.734566 12.1745994,402.503537 C11.5577154,401.041691 12.7143729,400.11842 13.4854779,399.118209 C13.7168094,398.810452 13.9481408,398.425756 14.2565828,398.271877 C21.8905221,395.809821 21.9676326,388.192832 24.974942,382.576265 C25.6689364,381.268298 25.9002679,379.806452 26.6713729,378.421545 C29.6015718,373.035796 30.7582293,367.034532 32.0691077,361.187147 C33.2257652,356.032216 34.7679751,353.954856 40.0114889,353.877916 C43.4814613,353.877916 44.0983453,354.724248 42.8645773,358.032637 C42.3248039,359.494483 40.9368149,360.494694 40.8597044,362.110419 C40.7825939,363.03369 40.6283729,364.0339 41.4765884,364.572475 C42.4790248,365.18799 43.1730193,364.418597 43.7899033,363.803083 C44.8694503,362.725933 45.8718867,361.648783 46.4887707,360.109997 C48.1852016,355.64752 51.03829,353.108524 56.3589144,353.49322 C62.2193122,353.877916 68.1568205,353.570159 74.0943287,353.570159 C75.3280967,353.570159 76.7931961,353.108524 77.5643011,354.57037 C78.2582956,355.878337 76.9474171,356.570791 76.4847542,357.571001 C74.5569917,362.110419 72.5521188,366.649836 70.9327984,371.343131 C70.3930249,372.881917 70.0845829,374.497642 69.1592569,375.882549 C68.2339309,377.344395 67.5399365,379.344816 69.3134779,380.345027 C71.4725718,381.576055 72.5521188,379.344816 73.3232238,377.88297 C75.1738757,374.112945 76.7160857,370.265982 78.4125166,366.419018 C80.031837,362.725933 81.6511575,358.955908 83.1933674,355.185884 C83.8102514,353.570159 85.0440194,353.262402 86.5862293,353.185463 C90.2104227,353.108524 93.7575056,353.108524 97.3816989,353.031584 C98.9239089,353.031584 100.389008,353.108524 101.545666,354.416491 C102.856544,355.878337 104.707196,356.032216 105.863854,354.339552 C106.943401,352.800766 106.403627,351.108102 105.015638,349.800135 C103.936091,348.799924 102.548102,348.492167 101.083003,348.492167 C86.8946713,348.107471 72.7063398,348.18441 58.5180083,349.26156 C46.0261077,350.184831 33.3799862,349.877074 20.8109751,349.954013 C17.3410027,349.954013 18.1121077,347.568896 18.8832127,345.645414 C21.3507486,339.182515 23.3556215,332.642677 25.3604944,326.025899 C26.9798149,320.794028 29.2931298,315.716036 30.7582293,310.330287 C32.5317707,303.944327 35.5390801,297.943064 36.927069,291.403226 C37.543953,288.402594 39.3174945,285.401962 40.1657099,282.247452 C41.8621409,276.09231 44.1754558,270.091047 46.3345497,264.166723 C47.6454282,260.627516 47.4912072,256.549735 50.1129641,253.241346 C51.655174,251.317864 52.0407265,248.240293 52.5805,245.778236 C54.4311519,237.391855 58.9035608,229.851807 60.1373287,221.311547 C60.2915497,220.157458 61.0626547,219.465005 61.9108702,218.84949 C68.8508149,214.079255 76.3305332,211.155563 85.0440194,212.771288 C87.8971078,213.309863 88.3597707,214.771709 87.0488923,217.156826 C86.7404503,217.695401 86.3548978,218.233976 86.0464558,218.772551 C84.5813564,221.619304 82.5764834,224.23524 84.5042459,227.928325 C85.4295718,229.774867 84.6584669,232.467742 84.6584669,234.77592 C84.6584669,236.622463 85.1982404,238.161248 87.3573343,238.238187 C89.5164282,238.392066 90.2875332,236.853281 90.2875332,235.006738 C90.4417542,228.543839 93.1406216,222.311758 92.2152956,215.69498 C91.8297431,213.155984 93.2948426,211.848017 95.9165995,212.155774 C97.6901409,212.386591 99.6950138,212.309652 101.160113,213.079045 C104.707196,214.848648 106.712069,213.386802 108.4085,210.540049 C110.490483,207.077782 112.032693,206.770024 115.040003,209.232081 C116.505102,210.46311 117.970202,211.771077 119.28108,213.155984 C120.669069,214.69477 122.28839,216.233555 118.972638,217.772341 C116.890655,218.772551 117.199097,220.542154 119.126859,221.542365 C121.440174,222.773393 123.599268,224.081361 126.606577,222.311758 C129.228334,220.696033 129.690997,218.84949 129.305445,216.233555 C129.151224,214.848648 129.074113,213.540681 130.924765,212.771288 C135.705616,210.847806 136.630942,209.232081 136.24539,204.231028 C136.168279,203.923271 136.168279,203.461636 136.939384,203 Z M177.499506,344.183568 C177.499506,344.106628 177.499506,344.106628 177.499506,344.029689 C180.738147,344.029689 183.899677,344.106628 187.138318,344.029689 C188.680528,343.95275 191.225174,345.491535 191.533616,342.644782 C191.764948,340.413543 189.374522,339.72109 187.600981,339.028636 C186.829876,338.720879 185.827439,338.797819 184.902113,338.797819 C178.270611,338.874758 171.561997,339.028636 164.930495,339.182515 C163.156953,339.182515 161.383412,339.259454 161.306301,341.567632 C161.229191,343.875811 163.079843,344.183568 164.776274,344.183568 C169.017351,344.183568 173.258428,344.183568 177.499506,344.183568 Z M95.685268,346.10705 C95.685268,346.10705 95.685268,346.10705 95.685268,346.10705 C97.8443619,346.183989 100.080566,346.10705 102.23966,346.183989 C103.936091,346.260928 105.786743,346.722564 106.172296,344.414386 C106.557848,342.260086 105.632522,340.336604 103.550539,339.874968 C98.1528039,338.720879 92.6008481,338.720879 87.2031133,339.72109 C85.1982404,340.105786 84.7355774,341.79845 84.8897984,343.568054 C84.9669089,345.568475 86.3548978,346.10705 88.0513288,346.10705 C90.5959752,346.10705 93.1406216,346.10705 95.685268,346.10705 Z M121.285953,253.626042 C121.208843,257.549945 123.830599,260.627516 127.300572,260.704455 C130.384992,260.781395 134.086296,257.242188 134.163406,254.164617 C134.240517,251.625621 130.230771,247.54784 127.609014,247.54784 C123.830599,247.54784 121.285953,249.932957 121.285953,253.626042 Z M42.0934724,401.426388 C42.0934724,401.503327 42.0934724,401.657205 42.0934724,401.734145 C45.4092237,401.734145 48.7249751,401.734145 52.117837,401.734145 C53.197384,401.734145 54.2769309,401.734145 54.5853729,400.503116 C54.8938149,399.349027 54.0455994,398.656574 53.197384,397.96412 C52.3491685,397.348606 51.4238425,397.040849 50.3442956,396.96391 C43.4043508,396.733092 36.4644061,397.348606 29.6015718,396.579213 C28.5220248,396.425335 27.5195884,396.88697 27.2882569,398.117999 C27.0569254,399.118209 27.6738094,399.733724 28.5220248,400.272298 C29.8329033,401.118631 31.2980027,401.503327 32.9173232,401.426388 C36.0017431,401.349448 39.086163,401.426388 42.0934724,401.426388 Z M131.387428,237.699613 C132.929638,234.698981 129.768108,232.083046 129.305445,228.928535 C129.074113,227.235871 128.997003,225.312389 126.606577,225.620147 C124.447483,225.850964 124.216152,227.620568 124.139041,229.390171 C124.061931,230.698139 123.90771,232.083046 124.755925,233.083256 C126.143914,234.698981 125.989693,236.622463 125.989693,238.545945 C125.989693,239.853912 125.989693,241.084941 126.221025,242.392908 C126.529467,244.008633 127.686124,244.701086 129.382555,244.624147 C131.078986,244.547208 131.387428,243.31618 131.464539,241.931273 C131.387428,240.700244 131.387428,239.546155 131.387428,237.699613 Z M109.256716,398.656574 C109.256716,398.656574 109.256716,398.579634 109.256716,398.579634 C106.78918,398.579634 104.398754,398.579634 101.931218,398.579634 C100.389008,398.579634 98.3841354,398.348817 98.3841354,400.503116 C98.3841354,402.580477 100.311898,402.426598 101.854108,402.503537 C106.86629,402.811295 111.801362,402.965173 116.813544,403.503748 C118.741307,403.734566 120.206406,403.888444 120.437738,401.580266 C120.669069,399.349027 119.28108,398.656574 117.353318,398.656574 C114.65445,398.656574 111.955583,398.656574 109.256716,398.656574 Z M77.1016381,283.863177 C77.4871906,285.401962 76.2534227,288.171776 79.1065111,288.325655 C81.265605,288.479533 82.6535939,286.556052 83.1162569,284.401752 C83.1933674,284.170934 83.1933674,283.863177 83.1933674,283.632359 C82.8849254,281.170302 83.3475884,278.785185 83.7331409,276.400067 C83.9644724,274.630464 84.3500249,272.322286 82.03671,271.937589 C79.4920636,271.475954 78.5667376,273.784132 78.1040746,275.784553 C77.5643011,278.400489 77.4100801,281.093363 77.1016381,283.863177 Z M154.674798,398.579634 C154.674798,398.579634 154.674798,398.579634 154.674798,398.579634 C152.592815,398.579634 150.587942,398.502695 148.505959,398.579634 C146.963749,398.579634 145.113097,398.502695 145.190207,400.733934 C145.267318,402.965173 146.886638,403.888444 148.891511,403.734566 C153.132588,403.426809 157.296555,402.888234 161.537633,402.426598 C162.61718,402.27272 163.619616,401.734145 163.619616,400.580056 C163.696727,399.04127 162.462959,398.656574 161.229191,398.656574 C159.070097,398.579634 156.833892,398.579634 154.674798,398.579634 Z M38.3921685,340.490483 C38.3921685,340.567422 38.3921685,340.7213 38.3921685,340.79824 C37.0041795,340.79824 35.5390801,340.7213 34.1510911,340.79824 C32.3775497,340.875179 31.2208922,341.87539 31.2980027,343.721932 C31.3751132,345.491535 32.6859917,346.03011 34.2282016,346.10705 C37.1584005,346.260928 40.0885994,346.491746 43.0959088,346.645625 C44.8694503,346.722564 46.1032182,345.953171 46.2574392,344.029689 C46.4116602,342.260086 45.5634447,340.952118 43.7899033,340.7213 C42.0163619,340.567422 40.1657099,340.567422 38.3921685,340.490483 Z M76.0992017,346.183989 C77.3329696,346.03011 80.1089475,346.799503 80.4945,343.414175 C80.7258315,341.029058 77.7956326,339.028636 74.3256602,339.105576 C71.7039033,339.105576 70.1616934,340.259665 70.3159144,343.029479 C70.4701354,346.337867 72.7834503,346.337867 76.0992017,346.183989 Z M80.648721,297.019793 C80.7258315,295.865704 80.802942,295.019372 80.957163,294.0961 C81.111384,292.942011 81.265605,291.634044 80.031837,291.018529 C78.3354061,290.249137 77.8727431,291.941801 77.1016381,292.865072 C74.2485497,296.2504 75.8678702,300.251242 75.8678702,303.944327 C75.8678702,305.79087 77.7185221,305.636991 79.0294006,304.405963 C81.1884945,302.174724 80.648721,299.40491 80.648721,297.019793 Z M130.230771,402.426598 C132.312754,402.27272 134.086296,402.19578 135.859837,402.041902 C137.016495,401.964963 137.86471,401.349448 137.86471,400.11842 C137.941821,398.887392 137.016495,398.348817 135.936948,398.04106 C134.009185,397.425545 132.081423,398.04106 130.230771,398.425756 C128.148787,398.810452 124.293262,397.117788 124.601704,400.887813 C124.987257,404.273141 128.457229,401.964963 130.230771,402.426598 Z M176.419959,401.811084 C178.579053,401.19557 182.126135,401.041691 181.971914,398.117999 C181.817693,395.194306 178.501942,396.96391 176.57418,396.579213 C176.342848,396.502274 176.034406,396.579213 175.803075,396.579213 C174.029533,396.733092 172.255992,397.117788 172.410213,399.272088 C172.564434,401.580266 174.492196,401.657205 176.419959,401.811084 Z M80.1089475,264.089784 C80.1089475,265.936326 80.5716105,267.475112 82.7307044,267.62899 C84.8897984,267.782869 85.7380138,266.397962 85.7380138,264.47448 C85.7380138,262.627937 85.1211299,261.089152 83.0391464,260.935273 C80.802942,260.704455 80.186058,262.243241 80.1089475,264.089784 Z M88.0513288,252.77971 C87.8199973,250.933168 86.8175608,249.702139 84.8126879,249.779079 C82.9620359,249.856018 82.190931,251.240925 82.190931,252.933589 C82.190931,254.780131 82.9620359,256.165038 85.1211299,256.088099 C87.3573343,256.01116 87.8199973,254.549314 88.0513288,252.77971 Z M129.690997,267.090415 C129.536776,265.243873 128.380119,264.089784 126.529467,264.012844 C124.678815,263.935905 123.676379,265.089994 123.676379,266.859597 C123.676379,268.860019 124.755925,270.244925 126.915019,270.167986 C128.765671,270.091047 129.536776,268.860019 129.690997,267.090415 Z" id="Shape" fill-rule="nonzero"></path>
                    <path d="M124.469503,163.782585 C122.693624,163.320381 120.763321,162.627074 119.836775,164.861063 C118.987442,166.786915 120.454472,167.942426 121.844291,168.943869 C122.461988,169.406073 123.002473,169.945312 123.465746,170.561585 C123.774594,170.946755 124.00623,171.485994 123.929018,171.871164 C123.697382,172.641505 122.925261,172.564471 122.307564,172.410403 C121.921503,172.333369 121.45823,172.256335 121.226594,172.025232 C116.74829,167.711324 112.347199,169.637176 107.868895,172.102266 C106.865137,172.641505 105.86138,172.487437 106.015804,171.254891 C106.556289,164.784028 106.633501,158.236131 110.802956,152.689677 C111.111805,152.304507 111.420653,151.842302 111.883926,151.534166 C115.204048,148.992041 128.71617,149.146109 131.804656,151.919336 C134.275444,154.153325 136.591808,156.541381 138.83096,159.006472 C140.606839,161.009358 142.073869,161.548597 144.235809,159.391643 C148.096415,155.462904 153.115204,153.074848 157.593507,149.91645 C160.990841,147.528394 164.233751,144.755167 167.553872,142.136008 C175.42951,135.973281 184.000056,130.811997 191.566845,124.341134 C192.570603,123.416725 193.651572,122.723419 195.041391,123.108589 C201.063937,124.649271 207.318119,124.418168 213.340666,125.342578 C215.888666,125.727748 217.432909,126.652157 216.892424,129.579452 C212.954605,149.223144 214.730484,169.097937 214.498848,188.895697 C214.421636,193.67181 214.421636,193.825878 210.097756,191.59189 C207.858604,190.436378 205.54224,191.437821 203.225877,191.052651 C198.052664,190.205276 193.033875,188.58756 187.706238,188.741629 C186.548056,188.818663 185.312662,188.356458 184.849389,189.820106 C184.463329,191.206719 185.389874,191.900026 186.393632,192.593333 C188.555572,194.134014 191.103572,193.594776 193.497148,193.748844 C204.924543,194.442151 202.530967,193.748844 203.071452,203.224036 C203.534725,211.466683 199.828543,218.399751 195.041391,224.023239 C190.408663,229.415625 184.000056,233.652499 175.892782,232.882159 C173.113146,232.651056 170.179085,232.496988 167.399448,232.882159 C158.133992,234.114704 150.79884,225.409852 148.096415,219.32416 C145.393991,213.315501 143.154839,207.152775 143.154839,200.373775 C143.154839,197.292412 141.070111,194.365117 141.147323,191.052651 C141.147323,189.820106 140.066354,188.972731 138.753747,189.049765 C133.117262,189.511969 127.480776,189.974174 121.844291,190.513412 C120.454472,190.667481 119.527927,191.668924 120.300048,192.901469 C121.844291,195.212492 120.686109,195.443594 118.678593,196.059867 C116.130593,196.907241 114.123078,198.293855 116.74829,201.298184 C117.365987,201.991491 117.520411,203.069968 116.74829,203.763275 C115.744532,204.61065 115.204048,203.532173 114.509138,202.992934 C112.115562,200.990048 112.733259,198.370889 113.737017,196.213935 C115.898957,191.206719 115.435684,185.891367 116.053381,180.730084 C116.285017,178.881266 116.74829,177.340584 118.215321,176.570243 C120.145624,175.491766 120.763321,177.64872 121.844291,178.573129 C123.851806,180.344913 125.782109,182.270765 128.638958,182.73297 C129.719928,182.887038 130.723686,182.810004 131.264171,181.731527 C131.727444,180.807118 131.418595,179.959743 130.646474,179.34347 C129.025019,178.033891 128.793383,176.801346 130.414837,175.18363 C132.113504,173.48888 130.955322,171.948198 129.719928,170.561585 C127.789625,168.40463 125.704897,166.247676 124.392291,163.551483 C127.480776,164.475892 129.102231,167.326153 131.341383,169.329039 C132.653989,170.407517 134.043807,172.102266 135.510838,170.407517 C137.209505,168.558699 135.279202,167.249119 133.889383,166.093608 C132.036292,164.552926 130.105989,163.089279 128.098473,161.702665 C127.24914,161.086392 126.322594,159.853847 125.0872,160.47012 C123.929018,161.317495 124.469503,162.704108 124.469503,163.782585 Z M141.147323,165.708437 C140.992899,165.400301 140.915687,164.861063 140.606839,164.475892 C137.286717,160.932324 133.812171,157.542825 129.951565,154.692563 C128.947807,153.922223 127.326352,153.768154 126.554231,155.231802 C125.782109,156.618416 126.090958,158.159097 127.480776,158.929438 C129.025019,159.776813 130.492049,160.778256 131.95908,161.779699 C134.198232,163.320381 135.665262,165.631403 137.74999,167.326153 C138.444899,167.865392 139.21702,168.40463 140.143566,167.942426 C140.992899,167.480221 141.147323,166.709881 141.147323,165.708437 Z M160.836417,189.743072 C160.913629,190.744515 160.913629,191.745958 160.990841,192.747401 C161.145265,193.902912 161.608538,195.058423 162.998356,195.135457 C164.233751,195.289526 165.469145,194.750287 165.855205,193.67181 C166.858963,190.975617 166.858963,188.20239 165.005872,185.737299 C164.465387,185.043993 163.538841,184.581788 162.612296,184.81289 C161.454114,185.043993 161.068053,186.045436 160.913629,187.046879 C160.836417,187.971288 160.836417,188.818663 160.836417,189.743072 Z M178.36357,186.430606 C175.352297,186.661708 175.275085,188.741629 175.197873,190.898583 C175.120661,192.824435 175.661146,194.288083 177.900298,194.211048 C180.293874,194.05698 181.683692,192.593333 181.683692,190.28231 C181.683692,188.048322 180.448298,186.738742 178.36357,186.430606 Z" id="Shape" fill-rule="nonzero"></path>
                    <path d="M33.7216709,221 C22.9076216,219.456204 12.7838308,216.677372 6.57150466,205.716422 C4.57742466,202.165692 2.89012619,198.537771 0.89604619,194.987041 C-0.331079966,192.825727 0.129092343,190.432844 0.0523969579,188.19434 C-0.254384581,180.089412 0.742655421,172.447623 4.19394773,164.805834 C7.33845851,157.858753 10.7130554,150.988862 14.5478247,144.42773 C18.3058985,138.098167 23.8279662,133.23521 29.5034247,128.603823 C35.4089693,123.818056 42.4649447,121.347983 49.0607478,117.951632 C51.7450863,116.562216 54.889597,116.021887 57.8040217,115.327179 C60.7951417,114.632471 63.7862617,114.169332 66.6239909,112.857106 C72.1460586,110.387033 75.9041325,113.706194 79.4321202,117.102544 C82.4999355,120.035756 85.4143602,123.046158 88.7122617,125.670611 C90.0160833,126.751268 90.4762556,127.677546 89.4025202,129.221341 C85.4143602,135.010575 81.5028955,140.876999 77.6681263,146.743423 C76.1342186,149.059117 73.7566617,149.059117 71.5324955,148.981927 C65.7803417,148.981927 60.4883601,150.371343 55.5798555,153.227366 C54.5828155,153.767694 53.5857755,154.616782 53.0489078,155.543059 C51.9751724,157.395614 52.281954,158.78503 54.889597,158.707841 C59.1078432,158.553461 62.9426124,156.700906 66.8540771,155.465869 C72.222754,153.767694 77.6681263,153.999263 83.1134986,153.381745 C85.0308832,153.150176 85.4910556,154.616782 84.5707109,155.851818 C76.8244771,166.658389 80.2757694,179.085945 79.7389017,190.895982 C79.5088155,195.218611 79.8155971,199.618429 79.8922925,204.018246 C79.8922925,205.407663 79.8922925,206.951458 77.8982125,207.105838 C70.8422371,207.723356 64.8599971,211.196897 58.6476709,214.130109 C50.8247417,217.912408 42.6950309,219.996533 33.7216709,221 Z" id="Path"></path>
                    <path d="M274.82172,48.7738889 C274.82172,50.3054996 274.283303,51.5307882 272.821885,52.1434325 C265.43788,55.3598151 259.438376,60.8736138 252.362038,64.5494795 C250.054537,65.7747681 247.516285,66.6937346 245.516451,68.608248 C244.3627,69.7569561 243.593533,70.8290836 244.516533,72.2075333 C247.054785,75.9599796 249.74687,79.6358454 252.438955,83.3117111 C253.515789,84.7667414 255.054124,84.8433219 256.515541,83.6946138 C262.976545,78.4871373 270.5913,75.1175937 277.283055,70.2164393 C279.513639,68.608248 282.205724,67.612701 284.513226,66.0045097 C288.205228,63.5539326 289.051312,67.7658621 290.51273,69.2974728 C291.974147,70.8290836 289.820479,71.9777916 288.359062,72.8201776 C279.821306,77.9510735 270.975884,82.7756474 262.515045,88.0597045 C252.900455,94.1095669 243.285866,100.31259 233.286693,105.90297 C225.825771,110.038319 219.210934,115.552117 211.442345,119.227983 C209.365594,120.22353 208.211843,119.917208 206.827342,118.462178 C200.520172,111.876252 197.98192,114.173668 192.443916,117.236889 C189.905665,118.615339 187.521247,120.453272 185.290662,122.367785 C178.829658,127.958164 171.599486,132.552997 164.907732,137.760473 C158.831311,142.508466 152.447224,146.950138 146.524637,151.927872 C144.832469,153.306322 143.909468,153.459483 142.448051,151.774711 C141.06355,150.08994 140.140549,148.558329 142.217301,146.873557 C148.524471,141.742661 154.677809,136.382023 161.369563,131.63403 C163.446314,130.102419 164.984649,128.111325 167.0614,126.732876 C174.368488,121.67856 180.829492,115.398956 188.13658,110.344641 C195.289835,105.366906 196.135919,100.695493 192.13625,92.5779562 C191.367082,91.0463454 191.597832,90.0507984 193.213084,89.131832 C204.673674,83.0819695 215.442015,75.883399 226.748772,69.603795 C238.51703,63.0178688 249.823787,55.6661372 261.822795,49.4631137 C264.437963,48.1612446 266.668548,46.2467311 269.43755,45.2511842 C272.437301,44.4087983 274.82172,45.7106674 274.82172,48.7738889 Z" id="Path"></path>
                    <path d="M129.863544,42.9409207 C124.715411,42.5570652 118.952575,43.5550895 113.266578,41.7893542 C111.806659,41.3287277 110.423579,42.0196675 109.501525,43.2480051 C108.502634,44.5531137 109.117336,45.6279091 110.193065,46.5491622 C110.577254,46.8562466 110.884606,47.3168732 111.038281,47.7774998 C111.42247,49.2361506 111.883497,50.4644882 113.650767,50.5412593 C115.418036,50.6180304 116.109577,49.543235 116.724279,48.1613553 C117.492657,46.5491622 118.645224,44.783427 120.643007,45.0137403 C122.717628,45.3208247 123.870195,46.8562466 124.945924,48.8522951 C128.94149,55.915236 130.324571,63.9762012 133.628597,71.2694554 C135.472704,75.4918657 138.08519,79.2536494 141.466053,82.4012644 C142.388107,83.2457465 143.463836,84.1669996 142.772296,85.7024216 C142.157593,87.0843013 140.697675,87.0843013 139.46827,87.1610724 C136.164244,87.2378435 132.783381,87.2378435 129.556193,86.4701325 C123.486006,84.9347106 121.027196,80.5587581 120.258818,74.4170703 C119.49044,67.8915271 118.645224,61.3659839 118.337873,54.7636696 C118.184197,52.1534523 115.879063,51.8463679 114.034956,53.1514766 C112.344524,54.303043 111.191957,53.9959586 109.501525,53.3050187 C104.737581,51.4625124 99.8967991,48.9290662 94.5949904,51.923139 C92.1361805,53.3050187 89.6773707,54.9939829 90.5994244,58.0648267 C91.3678024,60.9053573 93.4424233,62.9014058 96.9001246,62.4407793 C98.1295295,62.2872371 98.9747454,61.8266105 99.7431235,60.7518151 C101.740906,57.6809713 106.88904,55.915236 109.578363,57.7577424 C111.883497,59.2931643 112.267686,62.4407793 113.036064,64.9742255 C114.57282,69.8108045 115.955901,74.8009258 116.954792,79.7910471 C117.72317,83.4760598 118.184197,87.1610724 115.341198,90.6925429 C108.96366,98.5231947 101.049366,104.281027 91.5983159,106.968015 C83.9145351,109.194377 76.3075921,107.889269 69.3921894,102.36175 C64.3977319,98.3696525 62.4767867,93.149218 61.6315709,87.6984701 C61.0168684,83.629602 62.3999489,79.1001073 63.6293539,75.0312391 C65.16611,69.8108045 69.161676,65.5116231 70.1605675,59.9073331 C70.5447566,57.6809713 72.6193774,57.0668025 74.6939982,58.2183689 C76.3075921,59.062851 77.7675105,59.9841042 79.6116179,60.2911886 C82.9924814,60.9053573 83.6840217,62.5943215 81.8399143,65.5883942 C80.5336716,67.7379849 78.9969154,69.8108045 77.8443483,72.1139374 C75.4623762,76.5666611 77.152808,81.4800112 82.0704277,82.7083488 C84.6829132,83.3225176 85.9123181,83.629602 85.6049669,86.9307591 C85.2207778,91.0763983 90.8299378,94.2240133 94.5181526,92.5350492 C95.5938819,92.0744226 96.5927734,91.613796 97.4379893,90.769314 C98.5137186,89.6177475 100.588339,89.1571209 100.050475,86.9307591 C99.5126101,84.7811684 97.5916649,84.9347106 95.9780709,84.8579395 C93.6729367,84.7811684 92.1361805,82.9386621 89.9847219,82.4012644 C88.755317,82.09418 89.139506,81.0193847 89.7542085,80.2516737 C90.7531,79.0233362 91.2909646,77.7182275 89.9847219,76.48989 C88.755317,75.4150946 87.9869389,76.8737454 87.0648852,77.4111431 C85.2207778,78.4091674 83.146157,78.6394807 81.7630765,77.0272876 C80.3799959,75.4918657 80.8410228,73.5725883 82.0704277,71.8068531 C86.2196693,65.9722497 87.8332633,59.2931643 88.2174523,52.2302234 C88.3711279,50.1574038 86.8343718,49.3896928 85.2976156,48.6219818 C84.0682107,48.0078131 82.761968,48.1613553 81.5325631,48.1613553 C76.0770787,48.0845842 75.9234031,48.0078131 77.152808,42.7873785 C77.9211861,39.4094502 76.9222946,37.7204861 73.5414311,37.1063173 C68.9311626,36.2618353 64.2440563,35.3405821 59.7106257,34.2657868 C56.4065999,33.4213047 53.0257364,32.5000515 49.9522241,31.1181718 C48.3386301,30.3504608 46.801874,29.659521 44.9577666,29.5059788 C43.3441726,29.3524366 41.7305787,28.5847256 42.0379299,26.6654482 C42.4221189,24.5158575 44.4199019,24.8229419 45.7261447,25.5138817 C51.2584668,28.5079545 57.4823292,29.5827499 63.3988404,31.4252562 C69.4690272,33.3445336 76.0770787,33.9587024 82.3777789,35.1870399 C104.353392,39.4094502 126.482681,39.4862213 148.688807,38.7952815 C149.457185,38.7952815 150.225563,38.7185104 150.993941,38.5649682 C152.223346,38.411426 153.83694,37.5669439 153.990616,39.5629924 C154.144291,41.4054988 152.377022,41.2519566 151.147617,41.4054988 C144.462728,42.403523 137.470487,43.0944629 129.863544,42.9409207 Z M78.6895642,84.2437707 C78.766402,83.1689754 78.3053751,82.7851199 77.8443483,82.3244933 C75.5392141,79.6375049 72.6193774,79.4839627 69.4690272,80.1749026 C67.163893,80.7123003 66.7028662,81.8638667 68.3932979,83.629602 C69.6995407,85.0114817 71.8509993,85.7791927 72.3888639,87.621699 C73.4645932,91.3834827 76.6917812,93.149218 79.150591,95.6826641 C80.3799959,96.9110017 82.0704277,97.4483994 83.5303461,95.8362063 C85.6049669,93.6098445 83.9145351,87.9287834 80.9946984,87.2378435 C79.150591,86.7004458 76.0002409,87.3913857 78.6895642,84.2437707 Z" id="Shape" fill-rule="nonzero"></path>
                    <path d="M56.5775081,452.378434 C59.796039,450.996529 63.6276234,451.917799 66.6162592,449.768169 C67.5358395,449.153988 68.9152098,449.077216 68.9152098,447.618538 C68.9152098,446.236632 67.6891028,445.85277 66.6928909,445.238589 C65.2368888,444.394092 63.7808868,444.470864 62.3248847,445.085044 C58.8764587,446.697267 54.891611,446.543722 51.5198167,448.463036 C48.9143394,449.921714 45.1593867,447.08113 44.3930698,443.933457 C43.0136994,438.175517 40.8680122,432.49435 42.0941192,426.352548 C42.4006459,424.817098 41.3278023,423.66551 39.7185368,423.435192 C37.1130595,423.128102 36.8831644,421.285561 37.0364278,419.212703 C37.4962179,413.531536 41.3278023,410 46.9985472,410 C58.2634052,410 69.4516316,410 80.7164897,410 C86.7703931,410 89.8356606,414.376034 86.6937614,419.596566 C82.7089136,426.275776 81.2529115,433.10853 82.862177,440.70901 C82.9388087,441.169646 82.862177,441.707053 82.9388087,442.244461 C83.3219671,445.315362 82.6322819,447.38822 78.8773292,446.77404 C77.8811173,446.620495 76.731642,446.620495 76.3484835,447.925628 C76.1185885,448.923671 76.8849053,449.614623 77.5745905,450.075259 C79.2604877,451.303619 80.1800679,452.762297 80.8697531,454.911928 C81.7893334,457.829284 85.2377593,458.059601 87.6133416,458.213146 C92.7476647,458.520236 97.575461,460.286005 102.633152,460.976957 C106.541368,461.514365 109.146846,464.815584 108.993582,468.423892 C108.763687,472.646381 106.771264,474.412149 102.020099,474.642467 C95.2765104,474.949557 88.3030268,475.563737 81.9425967,473.797969 C74.1261646,471.648338 66.3863641,471.725111 58.4933003,471.571566 C56.5775081,471.494793 54.6617159,471.725111 52.7459237,471.955429 C47.3817056,472.492836 44.7762282,469.114845 46.6153887,463.894313 C48.2246542,459.364734 50.7534999,457.522194 55.5812962,457.291876 C61.3286728,457.061559 67.0760493,456.831241 72.7467942,456.600923 C73.9729012,456.524151 75.505535,456.677696 75.8120617,454.9887 C76.0419568,453.299705 74.8158498,452.378434 73.4364794,451.917799 C70.9842654,451.150074 68.4554197,451.226847 66.0032057,452.224889 C62.9379382,453.376477 59.7194073,453.990657 56.5775081,452.378434 Z" id="Path"></path>
                    <path d="M108.415927,126.825972 C108.879819,127.445303 109.498342,127.9098 109.884919,128.606547 C110.580758,129.922624 110.503442,132.09028 112.745588,131.238701 C114.678473,130.464538 115.296996,128.451715 114.446527,126.67114 C112.590958,122.800325 113.209481,118.852094 113.286796,114.903863 C113.286796,114.284532 113.518742,113.665202 113.673373,113.045872 C114.05995,113.045872 114.446527,112.968455 114.833104,112.968455 C114.833104,115.445777 114.833104,118.000515 114.833104,120.477836 C114.833104,122.49066 114.291896,125.045398 117.384511,125.122814 C120.322496,125.277646 120.399811,122.955158 120.399811,120.787501 C120.399811,119.935922 120.09055,118.619845 121.09565,118.387596 C126.27578,117.536017 125.657257,112.65879 127.28088,109.484722 C129.213765,105.76874 130.528126,101.743092 132.229065,97.9496939 C132.847588,96.5562005 134.084634,97.0206983 135.244365,97.3303635 C144.908788,100.194766 154.341264,103.833332 163.464479,108.246061 C167.098302,110.026636 170.577495,112.03946 174.597894,113.045872 C176.68541,113.587786 176.453464,115.910275 173.824741,117.768266 C169.958971,120.555252 166.247833,123.419655 162.536695,126.438891 C155.346364,132.245113 148.078718,137.819086 140.811072,143.470476 C138.414295,145.328467 136.094834,146.025214 132.770272,145.715549 C124.188265,144.863969 115.451627,144.089806 106.869619,146.876793 C100.916335,148.8122 98.1329811,146.567128 97.0505657,139.754494 C96.8186196,138.438417 97.514458,136.503009 95.6588889,136.193344 C93.8806351,135.883679 93.0301659,137.74167 92.4116428,139.057747 C90.7107044,142.464064 88.2366121,145.251051 85.6852045,147.960621 C85.0666815,148.579952 84.370843,149.508947 83.4430584,148.657368 C82.5925892,147.883205 83.1337969,146.954209 83.6750046,146.257463 C90.4787582,138.128752 95.5042581,128.606547 102.462643,120.555252 C104.318212,118.387596 103.854319,116.916686 101.457543,115.755442 C99.6019734,114.826446 97.7464042,113.974867 96.7413042,111.729795 C98.2102965,110.645966 99.9112349,111.110464 100.99365,111.884627 C103.390427,113.820035 105.632573,115.755442 109.343712,113.355537 C106.096466,118.077931 107.874719,122.49066 108.570558,126.980805 C107.952035,126.516307 107.410827,126.051809 106.869619,125.509895 C106.096466,124.813149 106.01915,123.032574 104.472842,123.574488 C103.00385,124.116402 103.158481,125.587312 103.081166,126.825972 C102.771904,129.767792 104.704789,131.780615 105.941835,134.18052 C106.405727,135.109516 106.714989,136.27076 108.02935,135.883679 C109.189081,135.574014 109.421027,134.412769 109.343712,133.406358 C108.957135,131.161285 108.647873,128.993629 108.415927,126.825972 Z M104.704789,138.438417 C104.086266,136.115928 103.931635,133.638606 102.385327,131.625783 C101.689489,130.774203 101.457543,129.225878 99.9885503,129.612959 C98.3649272,130.00004 97.8237196,131.548366 98.0556657,132.94186 C98.3649272,135.186932 98.9061349,137.509421 99.6792888,139.677077 C100.143181,140.993155 101.225596,142.309232 102.849219,141.92215 C104.318212,141.535069 104.550158,139.986743 104.704789,138.438417 Z" id="Shape" fill-rule="nonzero"></path>
                    <path d="M127.141696,422.890456 C127.218635,421.140606 127.141696,419.314676 127.526389,417.564826 C127.988022,415.054172 129.834551,413.532563 132.373529,413.532563 C145.914743,413.304322 159.532897,413.228241 173.074111,413 C175.074518,413 175.920844,413.836885 175.613089,415.814976 C174.843702,420.912365 175.997782,425.477191 179.15227,429.661615 C180.537167,431.487545 179.844718,433.846038 179.690841,435.976291 C179.613902,437.269658 178.382883,437.497899 177.305741,437.117497 C169.150236,433.922119 160.686977,434.07428 152.14678,434.835084 C146.914947,435.291567 141.990869,436.280612 137.451484,439.171669 C134.604752,440.997599 132.681284,439.704232 132.373529,436.280612 C132.219651,434.682923 132.065774,433.161315 130.680877,432.248349 C127.218635,429.965936 126.680063,426.618397 127.141696,422.890456 Z" id="Path"></path>
                    <path d="M278,122.913715 C276.368164,124.594812 274.814034,124.289158 273.33761,124.289158 C270.617883,124.365571 267.898156,124.441985 265.178428,124.594812 C264.012831,124.671225 262.614114,124.824052 262.536408,126.275908 C262.536408,127.880592 264.012831,127.804178 265.100722,127.804178 C267.665036,127.804178 270.307057,127.574938 272.871371,127.574938 C274.192382,127.574938 275.746512,126.96363 276.912109,128.339073 C275.901925,129.867343 274.270088,130.325824 272.793665,131.013545 C271.861187,131.472026 270.540177,131.472026 270.540177,132.771055 C270.617883,134.070085 271.938893,133.993671 272.949078,134.299325 C273.57073,134.452152 274.192382,134.528566 274.503208,135.598355 C272.482839,136.897384 270.307057,135.598355 268.208982,135.904009 C266.732558,136.133249 264.789896,135.827595 264.712189,137.967173 C264.634483,139.953924 266.344026,140.259578 267.975862,140.488818 C268.90834,140.641645 270.46247,139.801097 270.617883,141.17654 C270.773296,142.628396 269.063753,142.628396 268.053569,142.93405 C262.769527,144.385906 258.340257,147.595273 253.83328,150.498986 C250.025662,152.944218 245.907218,153.479112 241.788774,153.479112 C238.447394,153.479112 237.204091,154.472487 236.970971,157.758268 C236.271613,168.53257 235.572254,179.306873 237.126384,190.157589 C237.43721,192.526407 237.981155,194.283917 239.768405,195.735774 C240.31235,196.194255 241.167122,196.805563 240.390057,197.569698 C239.768405,198.181006 238.835927,198.104592 238.291981,197.569698 C237.126384,196.423495 235.183722,195.124466 235.183722,193.90185 C235.028309,188.323665 232.852527,183.127547 233.00794,177.472949 C233.163353,167.157127 236.038493,157.14696 235.261428,146.831138 C235.106015,145.150041 235.416841,143.545358 236.271613,142.093502 C237.592623,139.801097 237.981155,137.279451 237.359504,134.681393 C236.737852,132.083334 237.43721,129.638102 238.214275,127.19287 C238.525101,126.199495 239.379872,125.664601 240.31235,126.123081 C241.167122,126.581562 240.856296,127.422111 240.467763,128.109832 C240.156937,128.644727 239.612992,129.179621 239.535285,129.790929 C239.224459,132.236161 238.058862,135.904009 240.390057,136.820971 C242.643545,137.661519 243.498317,134.070085 244.508501,132.00692 C248.238413,124.059917 253.755574,117.794011 261.914756,114.126163 C264.168244,113.132788 266.965678,113.438442 269.374579,112.215826 C270.69559,111.528104 271.861187,112.597893 272.482839,113.820509 C273.259904,115.501606 271.78348,115.730846 270.773296,116.189327 C268.90834,117.029876 266.965678,117.794011 265.100722,118.634559 C264.168244,119.016627 263.080353,119.398694 263.080353,120.697723 C263.15806,122.225993 264.47907,122.455234 265.644667,122.531647 C269.607699,122.531647 273.493023,122.684474 278,122.913715 Z M262.92494,134.757806 C262.691821,133.611604 261.837049,132.923882 260.516039,132.923882 C259.039615,132.923882 257.951724,133.611604 257.951724,135.139874 C257.951724,136.515317 258.728789,137.279451 260.205213,137.126625 C261.448517,136.897384 262.691821,136.515317 262.92494,134.757806 Z" id="Shape" fill-rule="nonzero"></path>
                    <path d="M177.734143,461.178282 C188.417636,461.706355 197.397963,462.7625 206.223457,465.176547 C209.552372,466.081814 213.190953,466.081814 216.597284,467.590593 C220.003615,469.174811 218.764949,471.815174 218.842366,474.078343 C218.997199,476.567828 216.597284,476.567828 214.894118,476.492389 C209.939455,476.341511 205.681541,479.585386 200.572045,478.906436 C198.714046,478.60468 197.01088,478.830997 196.856047,476.266072 C196.778631,474.530976 195.230298,474.153782 193.681966,474.153782 C190.894968,474.153782 188.030553,473.776587 185.475805,475.511683 C184.159722,476.41695 182.301724,476.869584 180.753391,475.662561 C179.205059,474.455538 179.592142,472.87132 179.979225,471.211663 C180.521142,469.099372 181.527558,466.157253 178.740559,465.251985 C175.643895,464.271279 172.005314,464.044962 169.063483,465.855497 C167.51515,466.760765 168.134483,468.873055 168.134483,470.457273 C168.134483,472.946759 167.128067,474.078343 164.573319,474.30466 C162.018571,474.530976 159.541239,475.285366 156.986491,475.738 C154.663992,476.115194 152.805994,475.662561 151.489911,473.399392 C150.173829,471.060785 151.799578,469.9292 152.960827,468.49586 C155.051076,465.855497 158.14774,464.422157 161.166988,463.969523 C167.205484,463.064256 172.934313,460.273015 177.734143,461.178282 Z" id="Path"></path>
                    <path d="M173.650076,453.628204 C168.825575,453.160549 164.766867,453.238492 160.70816,453.550262 C158.25762,453.706147 156.726032,455.109113 155.041285,456.434136 C153.969174,457.213561 154.045753,458.382699 154.581809,459.551838 C155.041285,460.487148 157.491826,461.032746 155.577341,462.435712 C154.122333,463.526907 152.131269,462.981309 151.288896,461.266574 C149.52757,457.681217 146.464394,455.264998 144.320171,452.069353 C143.937274,451.523756 143.630957,450.978158 143.094901,450.588445 C138.883035,447.081031 138.883035,447.158973 143.630957,444.820697 C154.811547,439.364719 166.298455,438.663236 178.091681,442.092708 C178.704316,442.248593 179.316951,442.482421 179.776427,442.872133 C180.6188,443.573616 182.303547,443.963329 181.92065,445.288352 C181.384594,447.003088 179.623268,446.301605 178.627736,445.756007 C174.109553,443.339789 169.208472,443.807444 164.46055,443.729501 C163.541597,443.729501 162.086589,443.651559 162.086589,444.976582 C162.086589,446.223663 163.541597,446.535433 164.383971,446.45749 C169.667948,445.989835 174.645608,447.704571 179.623268,449.029594 C180.235903,449.185479 180.925118,449.185479 181.537753,449.341364 C182.763023,449.731077 184.141452,450.198732 183.988293,451.835526 C183.835135,453.316434 182.380126,453.394377 181.308015,453.394377 C178.474578,453.706147 175.71772,453.628204 173.650076,453.628204 Z" id="Path"></path>
                    <path d="M136,22.8852319 C134.692535,23.0370558 133.23125,23.1888797 132.308333,22.2779362 C127.309201,17.343659 120.771874,14.6867404 115.311283,10.5115827 C112.465623,8.38604787 109.466143,6.41233696 106.312844,4.89409779 C102.005899,2.84447492 97.3913157,3.75541842 93.1612806,5.19774563 C86.3163146,7.47510437 79.6251681,10.2838468 72.8571119,12.8648534 C66.0890557,15.44586 59.3979092,18.0268666 52.629853,20.5319612 C51.783846,20.835609 50.8609292,20.9874329 50.0149222,20.911521 C48.5536373,20.835609 46.1694357,21.2151688 46.0156162,19.6210177 C45.7848871,17.7232187 48.1690887,18.6341622 49.3227346,18.1786905 C58.4749925,14.7626524 67.4734308,10.9670545 76.7795081,8.158312 C82.9322865,6.336425 88.7005162,3.07221079 95.2378433,2.31309121 C97.006767,2.08535534 98.0065935,0.415292253 99.9293368,0.11164442 C104.082462,-0.495651247 107.312671,1.47805967 110.081421,3.52768254 C117.849304,9.0692555 125.847916,14.1553567 133.615798,19.6210177 C134.769444,20.4560492 135.769271,21.3669927 135.92309,22.9611439 L136,22.8852319 Z" id="Path"></path>
                    <path d="M97.7960779,170.555494 C100.753638,168.322675 101.473044,164.93495 101.473044,161.8552 C101.473044,158.621462 104.75034,156.080669 103.151659,152.769937 C103.151659,152.692944 103.871066,152 104.270736,152 C104.670406,152 105.229945,152.384969 105.549681,152.769937 C106.189153,153.84785 106.029285,155.002756 105.789483,156.080669 C104.430604,161.162256 102.751989,166.16685 101.872715,171.325431 C100.833572,177.638919 100.114165,184.0294 100.753638,190.419881 C101.233242,194.885518 100.353968,199.659131 103.311528,203.7398 C104.030934,204.740718 104.110868,206.434581 102.352319,206.896543 C100.673704,207.358506 99.9542973,206.2036 99.1549568,204.817712 C96.5171331,199.890112 97.2365395,194.577543 97.0766714,189.418962 C96.9967374,186.647187 97.2365395,183.798419 97.1566055,181.026644 C97.1566055,180.179712 96.6770012,179.178794 97.3964076,178.408856 C99.9542973,175.868062 98.9950887,173.173281 97.7960779,170.555494 Z" id="Path"></path>
                    <path d="M218.050453,168.690053 C218.347931,161.413909 217.827345,153.982953 219.760948,146.86162 C220.058425,145.777939 219.984056,144.539446 219.760948,143.455765 C218.719777,138.03736 219.984056,133.005984 221.992028,128.129419 C222.215136,127.510173 222.438244,126.813521 223.256307,127.045738 C224,127.20055 224,127.974607 224,128.593854 C224,128.826071 223.925631,129.135694 223.925631,129.367912 C219.463471,147.79049 221.471443,166.600096 221.173965,185.254892 C221.173965,187.190036 221.471443,189.125181 221.620181,190.98292 C221.694551,191.91179 221.694551,192.995471 220.579011,192.995471 C219.612209,193.072876 219.612209,192.144007 219.53784,191.292543 C218.347931,183.784182 217.827345,176.27582 218.050453,168.690053 Z" id="Path"></path>
                    <path d="M92,153 C91.472935,156.01459 89.9670351,157.483237 89.4399701,159.492964 C86.9552352,169.077815 85.2987453,178.817261 85.1481553,188.788598 C85.0728603,192.730755 86.5034653,196.363722 86.9552352,200.151285 C87.0305302,200.537771 87.2564152,200.924257 87.2564152,201.233445 C87.2564152,202.933983 88.0093652,205.562088 86.1269903,205.948574 C83.7175504,206.412357 84.0940254,203.629658 83.8681404,202.006417 C82.9646004,193.039943 82.5128304,183.918875 83.7928454,175.106996 C84.6210903,169.309707 85.5999253,163.280526 88.0093652,157.792426 C88.7623151,155.937293 89.6658551,154.545944 92,153 Z" id="Path"></path>
                    <path d="M97.2293629,23.1255392 C104.038506,22.8241426 108.399417,27.1943938 112.913343,31.1878992 C113.525401,31.7153433 114.443488,32.6195332 113.754923,33.448374 C112.98985,34.3525639 111.765735,34.0511673 111.07717,33.2223265 C109.087982,31.0372009 106.333722,29.9823127 104.115013,28.0985837 C99.9071157,24.5571732 96.0817546,24.4818241 91.2617997,27.0436955 C88.9665831,28.249282 86.9008882,30.133011 83.9936138,30.133011 C83.2285416,30.133011 82.3869621,30.2083602 82.0809333,29.3041702 C81.7749044,28.3999803 82.3869621,27.8725362 83.0755271,27.4957904 C87.5129459,25.1599665 91.7973503,22.3720476 97.2293629,23.1255392 Z" id="Path"></path>
                    <path d="M104.363283,174 C106.359324,176.737438 105.546122,179.709514 105.546122,182.68159 C105.546122,184.011203 105.250412,185.262604 105.32434,186.592217 C105.398267,187.843617 105.546122,189.564293 107.024671,189.642505 C108.281438,189.720718 108.429293,188.078255 108.651075,186.905067 C109.09464,184.715116 109.168568,180.49164 110.794972,181.11734 C113.530288,182.134103 110.794972,185.184391 110.499262,187.374342 C110.203552,190.346418 110.055697,193.318494 109.759987,196.29057 C109.612133,197.854821 109.242495,199.653709 107.542164,199.966559 C105.767904,200.279409 105.250412,198.324096 104.954702,197.150908 C103.180443,189.48608 104.43721,181.74304 104.363283,174 Z" id="Path"></path>
                    <path d="M98,119.481422 C97.4050353,121.33251 96.1407354,122.643698 94.8020649,123.646371 C93.537765,124.571915 92.645318,123.492113 91.6785004,122.566569 C89.596124,120.561223 87.4393771,118.710135 85.2826302,116.781918 C84.5389243,116.08776 83.7208479,115.316473 84.0927008,114.159542 C84.4645537,113.079741 85.5057419,113.465384 86.3238183,113.233998 C91.2322769,111.922811 93.7608767,116.473403 97.4050353,118.170234 C97.7025177,118.324492 97.7768882,119.01865 98,119.481422 Z" id="Path"></path>
                    <path d="M117.892069,98.1420102 C116.247822,101.287522 114.603576,105.046792 112.436159,108.499183 C111.614036,109.803419 109.969789,108.192303 108.773973,107.808704 C107.353942,107.348386 108.250804,106.351028 108.624496,105.353671 C110.194004,101.671121 113.183544,99.1393676 115.500437,95.993856 C115.948868,95.3800976 116.472038,94.6896195 117.3689,95.1499383 C118.265762,95.610257 117.966808,96.6076144 117.892069,98.1420102 Z" id="Path"></path>
                    <path d="M233,135.038077 C232.923077,136.443612 232.923077,137.224464 232.846154,138.005317 C232.769231,138.786169 232.846154,139.723193 232,139.957448 C231.153846,140.191704 230.615385,139.410852 230.230769,138.786169 C228.923077,136.912123 227,135.428503 227,132.773605 C227,130.665303 227.692308,129.259768 230,129.025512 C232.384615,128.791256 232.769231,130.196791 232.846154,132.148923 C232.769231,133.398287 232.923077,134.569566 233,135.038077 Z" id="Path"></path>
                    <path d="M89,20.2011123 C88.394602,20.5761828 88.0919031,20.8762392 87.6378546,21.1012815 C83.2487194,23.2016763 78.8595842,25.3020712 74.470449,27.402466 C73.3353279,27.9275647 71.6704835,28.5276775 71.1407603,27.1774237 C70.4596876,25.6021276 72.4272309,25.8271699 73.2596531,25.4520994 C77.1190651,23.5017327 81.0541518,21.476352 84.9892385,19.6009995 C86.2757092,18.9258726 87.7892041,18.4757879 89,20.2011123 Z" id="Path"></path>
                    <path d="M136,23.0795911 C138.730833,23.1591823 140.9155,24.2734583 142.710048,26.4224192 C144.894714,29.048927 148.795905,29.2081092 150.902548,32.0733904 C151.448714,32.7897107 152.463024,33.3468487 151.76081,34.3815336 C151.136619,35.3366274 150.044286,35.0182628 149.342071,34.5407159 C145.20681,31.5162524 141.071548,28.3326067 137.01431,25.1489609 C136.468143,24.7510052 136.468143,23.7163203 136.156048,23 C136.156048,23 136,23.0795911 136,23.0795911 Z" id="Path"></path>
                    <path d="M133,208 C131.082901,207.770391 130.603627,206.392735 129.724956,205.550835 C128.44689,204.402789 127.408462,203.560889 125.81088,205.321226 C124.213297,207.1581 122.695594,206.010053 121.577287,204.555862 C120.219342,202.795524 121.497407,201.570942 122.935232,200.882114 C125.331605,199.657532 127.727978,199.427923 129.565198,202.03016 C130.923143,203.867034 132.201209,205.627371 133,208 Z" id="Path"></path>
                    <path d="M80,17.652401 C72.9230769,19.4094355 66.7692308,23.1631002 60,25 C62.6923077,21.0866049 67.0769231,20.4476832 70.7692308,18.6906487 C72.3076923,17.9718618 74,17.7322662 75.5384615,16.6141533 C76.7692308,15.735636 78.3846154,15.5759056 80,17.652401 Z" id="Path"></path>
                    <path d="M125,23.0795677 C129.664366,23.6365416 132.036078,27.7740619 135.672703,30.0019575 C136.858559,30.7976345 137.8863,31.7524469 138.993099,32.7072593 C139.467441,33.1050977 140.337069,33.4233685 139.862727,34.2190455 C139.388384,35.0147225 138.518757,35.2534256 137.807243,34.6964517 C133.538162,31.4341761 128.873796,28.808442 125.474342,24.5117863 C125.158114,24.1139478 125.237171,23.4774062 125.079057,23 L125,23.0795677 Z" id="Path"></path>
                    <path d="M125,22.9205298 C123.559242,23 122.270142,22.602649 121.132701,21.7284768 C117.56872,19.1854305 114.990521,15.3708609 110.668246,13.8609272 C109.530806,13.4635762 109,12.3509934 109.075829,11 L109,11.0794702 C115.369668,13.5430464 120.905213,17.1192053 124.924171,23 C124.924171,23 125,22.9205298 125,22.9205298 Z" id="Path"></path>
                    <path d="M230.992599,163.47283 C230.909801,165.320165 231.158194,166.44463 230.081826,166.926543 C229.25385,167.247819 228.59147,166.44463 228.011887,165.882397 C226.521531,164.1957 224.2032,163.071235 224.037605,160.50103 C223.954807,159.697841 223.954807,158.814333 224.617188,158.252101 C225.527961,157.609549 226.107544,158.33242 226.687126,158.894652 C228.508673,160.50103 231.158194,161.464857 230.992599,163.47283 Z" id="Path"></path>
                    <path d="M103,31.7834601 C102.926031,33.0684984 102.186343,33.2112804 101.224748,32.7829343 C100.263154,32.3545882 99.1536216,31.9976331 98.3399647,31.283723 C96.6386819,29.8559026 95.1593056,28.7136464 93.1621476,30.9267679 C92.7183348,31.426505 91.6088025,31.497896 91.1649897,30.8553769 C90.6472079,30.0700757 91.4608649,29.5703386 92.0526154,29.2133835 C94.1237422,27.9997362 96.4167755,27.4999991 98.7098087,28.6422554 C100.337123,29.4989476 102.334281,29.9272937 103,31.7834601 Z" id="Path"></path>
                    <path d="M94.9955394,205.478287 C95.0658992,206.671727 94.2919423,207.343037 93.5179855,206.820907 C91.6886331,205.478287 90.0703597,203.837307 90,201.226657 C90,200.406167 90.2110791,199.436497 91.1257554,199.063547 C91.9700719,198.765187 92.3218704,199.585677 92.8143884,200.107807 C94.3623021,201.599607 94.0808632,203.837307 94.9955394,205.478287 Z" id="Path"></path>
                    <path d="M108,10.8125 C104.645963,10.875 101.36646,10.9375 98.0124224,10.9375 C97.1925466,10.9375 96,10.75 96,9.9375 C96,9.0625 97.1925466,9 98.0124224,9 C100.47205,9 102.931677,9 105.391304,9.0625 C106.881988,9.0625 107.627329,9.8125 107.850932,11 C107.925466,10.875 108,10.8125 108,10.8125 Z" id="Path"></path>
                    <path d="M93,12.87167 C90.0677233,13.2953649 87.2106332,13.7896755 84.8046625,15.6256866 C84.2031699,16.1199973 82.3235053,16.3318447 82.022759,14.9195285 C81.7971992,13.7190597 83.3009309,13.7896755 84.2031699,13.5778281 C87.06026,12.9422858 89.6917904,10.8238115 93,12.87167 Z" id="Path"></path>
                    <path d="M233,147.384289 C232.786625,148.799395 232.146501,149.395229 231.293002,148.724916 C229.728255,147.458768 228.234632,146.043662 227.238883,144.181681 C226.883259,143.511368 226.883259,142.692096 227.523383,142.170741 C228.163507,141.723865 228.661381,142.24522 229.017006,142.692096 C230.368379,144.330639 232.217626,145.596787 233,147.384289 Z" id="Path"></path>
                    <path d="M226.293485,169 C228.00277,170.749656 230.333614,171.942603 230.955172,174.487556 C231.188256,175.441914 230.489003,176.634861 229.401276,175.600973 C227.847381,174.089907 226.52657,172.340252 225.205759,170.511066 C224.73959,169.874828 225.050369,169.07953 226.293485,169 Z" id="Path"></path>
                    <path d="M231,153.43639 C230.832975,154.311736 230.582439,155.332972 229.580291,154.895299 C227.659508,154.019954 226.072774,152.63399 225.070627,150.956245 C224.736578,150.372681 225.655213,149.935008 226.406824,150.007954 C228.82868,150.22679 230.164877,151.685699 231,153.43639 Z" id="Path"></path>
                    <path d="M230,181.847716 C229.918193,182.759683 229.345546,183.110439 228.609286,182.970137 C226.236891,182.479077 224.600757,181.216354 224.02811,179.111814 C223.864497,178.550604 224.437144,177.778939 225.173404,178.059544 C227.382185,178.90136 228.691093,180.51484 230,181.847716 Z" id="Path"></path>
                    <path d="M90.7083142,173.004364 C91.6220618,172.843196 95.1364758,177.19472 94.9958993,178.081141 C94.9958993,178.242309 94.9958993,178.403476 94.925611,178.48406 C94.5038813,178.645227 93.8712868,179.12873 93.7307102,178.967563 C92.2546564,177.517055 90.4271611,176.388882 90.0054314,173.971369 C89.9351431,173.729617 90.5677376,173.246115 90.7083142,173.004364 Z" id="Path"></path>
                    <path d="M93,159 C95.3213104,160.24372 96.4467943,161.70692 97.5019354,163.24328 C97.8536491,163.68224 98.3460483,164.26752 97.6426209,164.77964 C97.0798789,165.2186 96.517137,164.92596 96.0247378,164.56016 C94.4771975,163.31644 93.5627419,161.63376 93,159 Z" id="Path"></path>
                    <path d="M94,193.557409 C93.9284168,194.539172 93.4273345,195.193681 93.2125849,194.94824 C91.8525042,193.311968 89.9197581,192.248391 89.0607598,190.121237 C88.774427,189.384914 89.5618421,188.812219 90.1345076,189.05766 C92.2104202,189.793982 93.0694185,191.921136 94,193.557409 Z" id="Path"></path>
                    <path d="M122,28.9896057 C119.189873,29.1267929 117.594937,27.8921078 116,26.1086737 C119.113924,25.7657056 119.873418,26.1086737 122,28.9896057 Z" id="Path"></path>
                    <path d="M93.21437,186 C92.0002147,184.782574 90.7860593,183.641236 89.7147457,182.347721 C89.2147994,181.815097 88.6434322,181.054205 89.2862203,180.369403 C90.0718502,179.608511 91.000322,180.141135 91.4288474,180.902027 C92.2858983,182.347721 92.5715819,184.097771 94,185.315198 C93.7143164,185.543465 93.4286328,185.771733 93.21437,186 Z" id="Path"></path>
                    <path d="M225,190.124545 C228.31456,189.550983 229.723247,191.056584 230.883343,192.633881 C231.214799,193.135748 230.800479,194.067787 230.137567,193.996091 C227.48592,193.781005 226.408688,191.988623 225,190.124545 Z" id="Path"></path>
                    <path d="M119.327469,115 C118.916488,112.818182 118.423311,110.636364 118.012329,108.454545 C117.930133,107.808081 118.258918,107 118.998684,107 C119.820646,107 120.067235,107.727273 119.985039,108.454545 C119.820646,110.555556 119.491861,112.656566 119.327469,115 Z" id="Path"></path>
                    <path d="M80.7113692,53 C81.852282,53.0681818 82.911701,53.2045455 82.9931948,54.3636364 C83.0746886,55.4545455 82.4227384,56 81.1188381,56 C79.8964315,56 79.0814938,55.4545455 79,54.4318182 C79,53.4772727 79.6519502,53.0681818 80.7113692,53 Z" id="Path"></path>
                    <path d="M98,170.675292 C93.8947368,171.999958 93.2631579,169.03894 92,166 C95.5526316,166.233765 95.6315789,169.818155 97.9210526,170.753213 C97.9210526,170.675292 98,170.675292 98,170.675292 Z" id="Path"></path>
                    <path d="M164,460.177897 C163.504872,460.515699 163.422351,460.583259 163.257308,460.583259 C161.524361,460.988622 159.791414,461.326424 158.223509,460.448138 C157.728382,460.177897 158.140988,459.569853 158.636116,459.367172 C160.534106,458.759128 162.267053,458.826688 164,460.177897 Z" id="Path"></path>
                    <path d="M132.551824,196.08 C133.419567,196.272 135.076166,195.696 134.99728,196.912 C134.918395,198 133.261795,198 132.157396,198 C131.131882,198 129.790825,197.872 130.027482,196.784 C130.185253,195.504 131.605196,196.208 132.551824,196.08 Z" id="Path"></path>
                </g>
            </g>
        </g>
    </g>
</svg>