<?xml version="1.0" encoding="UTF-8"?>
<svg width="201px" height="174px" viewBox="0 0 201 174" version="1.1" xmlns="http://www.w3.org/2000/svg" xmlns:xlink="http://www.w3.org/1999/xlink">
    <!-- Generator: Sketch 52.2 (67145) - http://www.bohemiancoding.com/sketch -->
    <title>share</title>
    <desc>Created with Sketch.</desc>
    <g id="首页" stroke="none" stroke-width="1" fill="none" fill-rule="evenodd">
        <g id="Desktop-HD" transform="translate(-200.000000, -1310.000000)">
            <g id="share" transform="translate(200.000000, 1310.000000)">
                <g id="XMLID_4280_" transform="translate(0.000000, 51.000000)">
                    <g id="XMLID_4283_" transform="translate(20.663551, 0.000000)">
                        <path d="M154.976636,114.535208 L4.66495327,114.535208 C3.9135514,114.535208 3.31869159,113.940139 3.31869159,113.188472 L3.31869159,4.69791667 C3.31869159,3.94625 3.9135514,3.35118056 4.66495327,3.35118056 L154.976636,3.35118056 C155.728037,3.35118056 156.322897,3.94625 156.322897,4.69791667 L156.322897,113.157153 C156.354206,113.908819 155.728037,114.535208 154.976636,114.535208 Z" id="XMLID_4287_" fill="#FFFFFF"></path>
                        <path d="M152.378037,117.82375 L7.2635514,117.82375 C3.25607477,117.82375 0,114.566528 0,110.557639 L0,7.32875 C0,3.31986111 3.25607477,0.0626388889 7.2635514,0.0626388889 L152.346729,0.0626388889 C156.354206,0.0626388889 159.61028,3.31986111 159.61028,7.32875 L159.61028,110.557639 C159.641589,114.566528 156.385514,117.82375 152.378037,117.82375 Z M7.2635514,6.67104167 C6.91915888,6.67104167 6.60607477,6.98423611 6.60607477,7.32875 L6.60607477,110.557639 C6.60607477,110.902153 6.91915888,111.215347 7.2635514,111.215347 L152.346729,111.215347 C152.691121,111.215347 153.004206,110.902153 153.004206,110.557639 L153.004206,7.32875 C153.004206,6.98423611 152.691121,6.67104167 152.346729,6.67104167 L7.2635514,6.67104167 Z" id="XMLID_4284_" fill="#FFB883" fill-rule="nonzero"></path>
                    </g>
                    <g id="XMLID_4281_" transform="translate(0.000000, 101.161806)" fill="#FFB883">
                        <path d="M199.340654,20.9840278 L1.65934579,20.9840278 C0.751401869,20.9840278 0,20.2323611 0,19.3240972 L0,1.65993056 C0,0.751666667 0.751401869,5.68434189e-14 1.65934579,5.68434189e-14 L199.340654,5.68434189e-14 C200.248598,5.68434189e-14 201,0.751666667 201,1.65993056 L201,19.3240972 C200.968692,20.2636806 200.248598,20.9840278 199.340654,20.9840278 Z" id="XMLID_4282_"></path>
                    </g>
                </g>
                <g id="XMLID_4211_" transform="translate(88.000000, 0.000000)" fill="#607BAC">
                    <g id="XMLID_4226_" transform="translate(55.395469, 85.392329)">
                        <ellipse id="XMLID_4227_" transform="translate(20.771678, 20.868417) rotate(-88.537939) translate(-20.771678, -20.868417) " cx="20.7716784" cy="20.8684169" rx="20.1556502" ry="20.2072393"></ellipse>
                    </g>
                    <g id="XMLID_4224_" transform="translate(0.000000, 43.951934)">
                        <ellipse id="XMLID_4225_" transform="translate(20.744531, 20.824778) rotate(-88.537939) translate(-20.744531, -20.824778) " cx="20.7445305" cy="20.8247778" rx="20.1556502" ry="20.2072392"></ellipse>
                    </g>
                    <g id="XMLID_4222_" transform="translate(57.283951, 0.000000)">
                        <ellipse id="XMLID_4223_" transform="translate(20.885215, 20.780100) rotate(-88.537929) translate(-20.885215, -20.780100) " cx="20.885215" cy="20.7800997" rx="20.1556503" ry="20.2072393"></ellipse>
                    </g>
                    <g id="XMLID_4217_" transform="translate(22.032289, 71.264922)">
                        <path d="M44.4422738,32.6814025 C43.7498304,33.6232296 42.4278931,33.8429893 41.4521775,33.152316 L1.98290598,4.83471276 C1.03866504,4.14403951 0.818342152,2.82548148 1.51078551,1.85226008 C2.20322887,0.910432922 3.52516619,0.690673251 4.50088183,1.3813465 L43.9701533,29.6989498 C44.9143942,30.389623 45.1347171,31.7395753 44.4422738,32.6814025 Z" id="XMLID_4221_"></path>
                        <path d="M42.7111654,34.4708741 C42.0816714,34.4708741 41.4521775,34.2825086 40.9485823,33.9057778 L1.47931081,5.58817449 C0.125898793,4.61495309 -0.188848189,2.69990453 0.786867454,1.31855802 C1.7625831,-0.0313942387 3.68253968,-0.345336626 5.0674264,0.627884774 L44.5366979,28.9454881 C45.1976665,29.4164016 45.6383123,30.1384691 45.7642111,30.9233251 C45.8901099,31.7395753 45.7012617,32.5244313 45.2291412,33.1837103 C44.7570208,33.8429893 44.0331027,34.2825086 43.2462352,34.4080856 C43.0259124,34.4708741 42.8685389,34.4708741 42.7111654,34.4708741 Z M3.24189391,1.91504856 C2.86419753,1.91504856 2.48650115,2.10341399 2.26617827,2.41735638 C1.88848189,2.95105844 2.01438068,3.70452016 2.54945055,4.11264527 L42.018722,32.4302486 C42.2705196,32.618614 42.6167413,32.6814025 42.9314883,32.6500082 C43.2462352,32.5872198 43.5295075,32.4302486 43.7183557,32.1790947 C43.9072039,31.9279407 43.9701533,31.5826041 43.9386786,31.2686617 C43.8757292,30.9547193 43.7183557,30.6721712 43.4665581,30.4838058 L3.99728666,2.16620247 C3.74548908,1.97783704 3.49369149,1.91504856 3.24189391,1.91504856 Z" id="XMLID_4218_" fill-rule="nonzero"></path>
                    </g>
                    <g id="XMLID_4212_" transform="translate(29.586216, 20.406255)">
                        <path d="M45.0717677,1.85226008 C45.7327364,2.82548148 45.4809388,4.14403951 44.5052232,4.80331852 L4.34350834,32.1790947 C3.3677927,32.8383737 2.04585538,32.5872198 1.38488672,31.6139984 C0.723918057,30.640777 0.975715642,29.3222189 1.95143128,28.6629399 L42.1131461,1.28716379 C43.0888618,0.627884774 44.4107991,0.879038683 45.0717677,1.85226008 Z" id="XMLID_4216_"></path>
                        <path d="M3.17894451,33.4662584 C2.20322887,33.4662584 1.22751323,32.9953449 0.660968661,32.1477004 C-0.283272283,30.7663539 0.0629493963,28.8513053 1.44783611,27.9094782 L41.6095509,0.533702058 C42.9944377,-0.408125103 44.9143942,-0.0627884774 45.8586352,1.31855802 C46.3307557,1.97783704 46.4881292,2.79408724 46.3307557,3.61033745 C46.1733822,4.42658765 45.7327364,5.11726091 45.040293,5.55678025 L4.87857821,32.9325564 C4.37498304,33.3092872 3.77696378,33.4662584 3.17894451,33.4662584 Z M43.3091846,1.85226008 C43.0888618,1.85226008 42.8370642,1.91504856 42.6167413,2.07201975 L2.45502646,29.4477959 C1.88848189,29.8245267 1.7625831,30.5779885 2.14027947,31.1430848 C2.51797585,31.7081811 3.27336861,31.833758 3.83991317,31.4570272 L44.001628,4.08125103 C44.2534256,3.8928856 44.4422738,3.61033745 44.5052232,3.29639506 C44.5681726,2.98245267 44.5052232,2.66851029 44.316375,2.38596214 C44.0960521,2.04062551 43.7183557,1.85226008 43.3091846,1.85226008 Z" id="XMLID_4213_" fill-rule="nonzero"></path>
                    </g>
                </g>
            </g>
        </g>
    </g>
</svg>