<?xml version="1.0" encoding="UTF-8"?>
<svg width="118px" height="135px" viewBox="0 0 118 135" version="1.1" xmlns="http://www.w3.org/2000/svg" xmlns:xlink="http://www.w3.org/1999/xlink">
    <!-- Generator: Sketch 52.2 (67145) - http://www.bohemiancoding.com/sketch -->
    <title>if_fork_118671</title>
    <desc>Created with Sketch.</desc>
    <g id="首页" stroke="none" stroke-width="1" fill="none" fill-rule="evenodd">
        <g id="Desktop-HD" transform="translate(-661.000000, -1349.000000)">
            <g id="if_fork_118671" transform="translate(661.000000, 1349.000000)">
                <path d="M84.1666667,0 L84.1666667,16.3476562 C84.1666667,23.1060938 81.5364583,29.46375 76.78525,34.2267187 L29.16375,81.7045313 C21.6350417,89.235 17.4898333,99.12375 17.031125,109.6875 L0,109.6875 L25.25,135 L50.5,109.6875 L33.847625,109.6875 C34.2895,103.620938 36.726125,97.9889062 41.0480833,93.6351562 L88.6695833,46.1742188 C96.6275417,38.2007812 101,27.6201562 101,16.3476562 L101,0 L84.1666667,0 Z" id="Path" fill="#FFB883"></path>
                <path d="M100.80025,109.555735 C100.337,98.9369952 96.13375,88.996769 88.5305,81.3931745 L79.053,72 L67,83.9630452 L76.5285,93.4198304 C80.91025,97.7750404 83.36675,103.457593 83.81725,109.555735 L67,109.555735 L92.5,135 L118,109.555735 L100.80025,109.555735 Z" id="Path" fill="#607BAC"></path>
            </g>
        </g>
    </g>
</svg>